<?xml version="1.0" encoding="UTF-8" standalone="no" ?>
<!DOCTYPE svg PUBLIC "-//W3C//DTD SVG 1.1//EN" "http://www.w3.org/Graphics/SVG/1.1/DTD/svg11.dtd">
<svg xmlns="http://www.w3.org/2000/svg" xmlns:xlink="http://www.w3.org/1999/xlink" version="1.1" width="500" height="500" viewBox="0 0 500 500" xml:space="preserve">
<desc>Created with Fabric.js 3.6.3</desc>
<defs>
</defs>
<g transform="matrix(4.971474472484032 0 0 4.971474472484032 253.2725182045624 242.19799999999998)"  >
<path style="stroke: none; stroke-width: 0; stroke-dasharray: none; stroke-linecap: butt; stroke-dashoffset: 0; stroke-linejoin: miter; stroke-miterlimit: 4; fill: rgb(255,255,255); fill-rule: nonzero; opacity: 1;"  transform=" translate(-50.0003, -50.0009)" d="m 88.449 66.43 h 6.4492 v 16.781 c -0.015626 6.4492 -5.2383 11.672 -11.688 11.688 h -16.812 v -6.418 h 14.328 c 4.2656 -0.003907 7.7227 -3.4609 7.7227 -7.7266 z m -74.648 19.77 c -1.4492 -1.4414 -2.2695 -3.3984 -2.2812 -5.4453 v -14.324 h -6.418 v 16.781 c 0.015626 6.4492 5.2383 11.672 11.688 11.688 h 16.781 v -6.418 h -14.301 h 0.003907 c -2.0586 0.007812 -4.0312 -0.81641 -5.4727 -2.2812 z m -2.2812 -66.926 c 0.03125 -4.2656 3.4883 -7.7109 7.7539 -7.7227 h 14.301 v -6.4492 h -16.785 c -6.4492 0.015626 -11.672 5.2383 -11.688 11.688 v 16.812 h 6.418 z m 60.504 30.727 v -10.301 l -8.9375 5.1484 l -11.016 6.3672 v 23.027 l 8.9375 -5.1484 l 11.012 -6.3633 z m -35.223 -5.2109 l -8.8242 -5.0898 v 23.027 l 10.895 6.3008 c 0.042968 0.007812 0.085937 0.027344 0.11719 0.058594 l 8.9102 5.1484 v -23.02 l -11.012 -6.3633 c -0.027344 -0.03125 -0.058594 -0.03125 -0.085938 -0.0625 z m 33.152 -8.6992 l -8.8242 -5.0898 c -0.058594 -0.03125 -0.089844 -0.03125 -0.11719 -0.058594 l -11.012 -6.3672 l -11.012 6.3633 l -8.9375 5.1484 l 8.8203 5.0898 v 0.003907 c 0.03125 0.03125 0.074218 0.050781 0.11719 0.058593 l 11.012 6.3633 l 11.012 -6.3633 z m 21.516 -27.559 c -2.1953 -2.1836 -5.1602 -3.418 -8.2578 -3.4297 h -16.812 v 6.4492 h 14.328 c 4.2656 0.003907 7.7227 3.4609 7.7227 7.7266 v 14.324 h 6.4492 v -16.812 c -0.011719 -3.0977 -1.2461 -6.0625 -3.4297 -8.2578 z" stroke-linecap="round" />
</g>
</svg>